<svg width="24" height="24" viewBox="0 0 24 24" fill="none" xmlns="http://www.w3.org/2000/svg">
<path d="M4.42549 12.9786L10.3509 18.5738C10.4842 18.7063 10.6443 18.8123 10.8217 18.8854C10.999 18.9586 11.1901 18.9975 11.3837 18.9999C11.5772 19.0022 11.7693 18.968 11.9486 18.8992C12.128 18.8304 12.2909 18.7284 12.4278 18.5992C12.5648 18.47 12.6729 18.3162 12.746 18.147C12.819 17.9777 12.8554 17.7963 12.8531 17.6136C12.8507 17.4308 12.8097 17.2503 12.7324 17.0828C12.655 16.9152 12.543 16.7639 12.4028 16.6379L8.90012 13.3355L17.5493 13.3355C17.934 13.3355 18.303 13.1912 18.5751 12.9343C18.8472 12.6774 19 12.3289 19 11.9656C19 11.6023 18.8472 11.2538 18.5751 10.9969C18.303 10.74 17.934 10.5957 17.5493 10.5957L8.93252 10.5957L12.4028 7.31365C12.6635 7.05459 12.8067 6.70956 12.8018 6.3522C12.7969 5.99483 12.6443 5.65342 12.3766 5.40082C12.1088 5.14821 11.7471 5.00441 11.3687 5.0001C10.9902 4.99579 10.625 5.13131 10.3509 5.37775L4.42549 10.973C4.2903 11.0999 4.18315 11.2509 4.11023 11.4172C4.03731 11.5835 4.00008 11.7618 4.00071 11.9418C3.99976 11.9531 3.99976 11.9645 4.00071 11.9758C3.99986 11.9871 3.99986 11.9985 4.00071 12.0098C4.00084 12.3731 4.15361 12.7215 4.42549 12.9786Z" fill="#000000"/>
</svg>
