<svg width="80" height="75" viewBox="0 0 80 75" fill="none" xmlns="http://www.w3.org/2000/svg">
<g opacity="0.79" clip-path="url(#clip0)">
<path d="M79.3948 37.0683C79.3948 57.5408 61.7575 74.1366 40.0001 74.1366C18.2428 74.1366 0.605469 57.5408 0.605469 37.0683C0.605469 16.5958 18.2428 0 40.0001 0C61.7575 0 79.3948 16.5958 79.3948 37.0683Z" fill="#EC2B1E"/>
<path d="M37.1593 62.1173C40.4101 59.2185 41.8516 55.2139 41.8516 55.2139L36.6123 51.0283C36.6123 51.0283 30.1743 39.3908 30.214 39.4202C15.8401 23.692 26.6915 2.36769 26.8141 2.1273C11.5434 7.23144 0.605469 20.9488 0.605469 37.0683C0.605469 56.1472 15.9273 71.86 35.6228 73.9104C33.0567 70.2531 33.6415 65.2547 37.1593 62.1173Z" fill="#FC0E0E"/>
<path d="M59.9217 24.9706C61.6223 23.3705 61.6223 20.7361 59.9217 19.136C58.2731 17.5848 55.6358 17.5848 53.9872 19.136L21.0752 50.1045C19.3747 51.7046 19.3747 54.3389 21.0752 55.939C22.7238 57.4903 25.3611 57.4903 27.0097 55.939L59.9217 24.9706Z" fill="white" stroke="white" stroke-width="3" stroke-linecap="round" stroke-linejoin="round"/>
<path d="M27.0097 19.136C25.3611 17.5848 22.7238 17.5848 21.0752 19.136C19.3747 20.7361 19.3747 23.3705 21.0752 24.9706L53.9872 55.939C55.6358 57.4903 58.2731 57.4903 59.9217 55.939C61.6223 54.3389 61.6223 51.7046 59.9217 50.1045L27.0097 19.136Z" fill="white" stroke="white" stroke-width="3" stroke-linecap="round" stroke-linejoin="round"/>
</g>
<defs>
<clipPath id="clip0">
<rect width="78.7893" height="74.1366" fill="white" transform="translate(0.605469)"/>
</clipPath>
</defs>
</svg>
